<svg xmlns="http://www.w3.org/2000/svg" viewBox="0 0 400 300" width="400" height="300">
  <defs>
    <linearGradient id="bg" x1="100%" y1="0%" x2="0%" y2="100%">
      <stop offset="0%" stop-color="#122f3e"/>
      <stop offset="55%" stop-color="#1a5260"/>
      <stop offset="100%" stop-color="#265040"/>
    </linearGradient>
    <linearGradient id="ig" x1="0%" y1="0%" x2="0%" y2="100%">
      <stop offset="0%" stop-color="#c8b88a" stop-opacity="0.88"/>
      <stop offset="100%" stop-color="#f3f6ef" stop-opacity="0.68"/>
    </linearGradient>
  </defs>
  <rect width="400" height="300" fill="url(#bg)"/>
  <rect x="1" y="1" width="398" height="298" fill="none" stroke="#c8b88a" stroke-width="1.5" stroke-opacity="0.55"/>
  <line x1="0" y1="25" x2="25" y2="0" stroke="#c8b88a" stroke-width="1" stroke-opacity="0.35"/>
  <line x1="375" y1="0" x2="400" y2="25" stroke="#c8b88a" stroke-width="1" stroke-opacity="0.35"/>
  <line x1="0" y1="275" x2="25" y2="300" stroke="#c8b88a" stroke-width="1" stroke-opacity="0.35"/>
  <line x1="375" y1="300" x2="400" y2="275" stroke="#c8b88a" stroke-width="1" stroke-opacity="0.35"/>
  <rect x="148" y="64" width="104" height="122" rx="6" fill="#f3f6ef" fill-opacity="0.10" stroke="#c8b88a" stroke-width="1.5" stroke-opacity="0.75"/><rect x="160" y="73" width="80" height="10" rx="3" fill="#c8b88a" fill-opacity="0.65"/><line x1="158" y1="89" x2="242" y2="89" stroke="#c8b88a" stroke-width="1" stroke-opacity="0.40"/><text x="200" y="112" text-anchor="middle" font-family="Arial,sans-serif" font-size="11" fill="#f3f6ef" fill-opacity="0.85">INGREDIENTE ACTIVO</text><text x="200" y="130" text-anchor="middle" font-family="Arial,sans-serif" font-size="13" font-weight="bold" fill="#c8b88a">Cipermetrina 200 g/L</text><line x1="158" y1="138" x2="242" y2="138" stroke="#c8b88a" stroke-width="1" stroke-opacity="0.40"/><text x="200" y="156" text-anchor="middle" font-family="Arial,sans-serif" font-size="10" fill="#f3f6ef" fill-opacity="0.68">Insecticida &#x2022; Reg. ICA certificado</text>
  <text x="200" y="248" text-anchor="middle" font-family="Arial,Helvetica,sans-serif" font-size="16" font-weight="bold" fill="#f3f6ef">Insecticida Cipermetrina</text>
  <text x="200" y="270" text-anchor="middle" font-family="Arial,Helvetica,sans-serif" font-size="12" fill="#c8b88a" fill-opacity="0.9">Detalle etiqueta</text>
</svg>